<svg width="50" height="50" viewBox="0 0 50 50" fill="none" xmlns="http://www.w3.org/2000/svg">
<path d="M15.4855 35.2132L17.6618 31.279C16.0435 30.1071 14.7786 28.6283 13.8672 26.8426C12.9557 25.0569 12.5 23.1689 12.5 21.1786C12.5 18.9278 13.0673 16.8352 14.202 14.9007C9.94234 17.077 6.39881 20.3601 3.57143 24.75C6.67783 29.5491 10.6492 33.0368 15.4855 35.2132ZM25.9487 14.9844C26.2091 14.724 26.3393 14.4077 26.3393 14.0357C26.3393 13.6637 26.2091 13.3475 25.9487 13.0871C25.6882 12.8266 25.372 12.6964 25 12.6964C22.6749 12.6964 20.6752 13.5335 19.0011 15.2076C17.3456 16.8631 16.5179 18.8534 16.5179 21.1786C16.5179 21.5506 16.6481 21.8668 16.9085 22.1272C17.1689 22.3876 17.4851 22.5179 17.8571 22.5179C18.2292 22.5179 18.5454 22.3876 18.8058 22.1272C19.0662 21.8668 19.1964 21.5506 19.1964 21.1786C19.1964 19.5789 19.7638 18.2117 20.8984 17.077C22.0331 15.9423 23.4003 15.375 25 15.375C25.372 15.375 25.6882 15.2448 25.9487 14.9844ZM36.4676 8.70647C36.4676 8.83668 36.4583 8.92039 36.4397 8.95759C34.468 12.4732 31.529 17.7467 27.6228 24.7779C23.7165 31.8092 20.7868 37.0733 18.8337 40.5703L17.4665 43.0536C17.2805 43.3512 17.0201 43.5 16.6853 43.5C16.4621 43.5 15.2158 42.849 12.9464 41.5469C12.6488 41.3609 12.5 41.1004 12.5 40.7656C12.5 40.5424 12.9092 39.7333 13.7277 38.3382C11.0677 37.1291 8.61235 35.5201 6.36161 33.5112C4.12946 31.5022 2.19494 29.2236 0.558036 26.6752C0.186012 26.0986 0 25.4568 0 24.75C0 24.0432 0.186012 23.4014 0.558036 22.8248C3.40402 18.4535 6.93824 15.003 11.1607 12.4732C15.3832 9.94345 19.9963 8.67857 25 8.67857C26.6555 8.67857 28.3296 8.83668 30.0223 9.1529L31.529 6.44643C31.715 6.14881 31.9754 6 32.3103 6C32.4033 6 32.5707 6.0558 32.8125 6.16741C33.0543 6.27902 33.3426 6.42783 33.6775 6.61384C34.0123 6.78125 34.3192 6.94866 34.5982 7.11607C34.8772 7.28348 35.1656 7.46019 35.4632 7.64621C35.7794 7.81362 35.9654 7.91592 36.0212 7.95312C36.3188 8.13914 36.4676 8.39025 36.4676 8.70647ZM37.5 21.1786C37.5 23.7641 36.7653 26.1265 35.2958 28.2656C33.8263 30.3862 31.8824 31.9115 29.4643 32.8415L37.2768 18.8348C37.4256 19.6719 37.5 20.4531 37.5 21.1786ZM49.442 22.8248C49.814 23.4572 50 24.099 50 24.75C50 25.401 49.814 26.0428 49.442 26.6752C48.7165 27.8657 47.7028 29.2143 46.4007 30.721C43.6105 33.9204 40.3739 36.4036 36.6908 38.1708C33.0264 39.9379 29.1295 40.8214 25 40.8214L27.0647 37.1384C31.0082 36.8036 34.654 35.5294 38.0022 33.3158C41.3691 31.1023 44.1778 28.247 46.4286 24.75C44.2894 21.4204 41.6667 18.686 38.5603 16.5469L40.3181 13.4219C42.0852 14.6124 43.7779 16.0353 45.3962 17.6908C47.0331 19.3464 48.3817 21.0577 49.442 22.8248Z" fill="#605E65"/>
</svg>
