<svg width="24" height="18" viewBox="0 0 24 18" fill="none" xmlns="http://www.w3.org/2000/svg">
<path d="M23.2556 12.5028L13.4744 18V4.57442L23.2941 0L23.2556 12.5028Z" fill="url(#paint0_linear)"/>
<path d="M23.2941 12.5127L0 17.6428V5.13009L23.2941 0V12.5127Z" fill="url(#paint1_linear)"/>
<path d="M9.38693 12.5714L7.0979 13.0775C7.06905 12.9187 7.02096 12.7004 6.96325 12.4127C6.90555 12.1249 6.81899 11.6784 6.69395 11.083C6.53045 11.1227 6.3958 11.1525 6.28039 11.1723C6.16498 11.1922 6.03995 11.2219 5.88606 11.2517C5.76103 11.2815 5.64562 11.3013 5.5302 11.3311C5.41479 11.3609 5.28976 11.3906 5.15511 11.4204C5.23205 11.7677 5.29938 12.1348 5.38594 12.502C5.46288 12.8691 5.5302 13.1767 5.57829 13.4149L3.27002 13.911C3.22193 13.6629 3.15461 13.3355 3.07767 12.9485C3.00073 12.5615 2.85646 11.8471 2.64487 10.8151C2.57754 10.4777 2.49098 10.061 2.38519 9.58468C2.27939 9.10839 2.18321 8.62217 2.08704 8.14588L4.37607 7.63982C4.45301 8.02681 4.52034 8.35426 4.57804 8.62217C4.63575 8.89009 4.68384 9.17785 4.75116 9.47553C4.88581 9.44576 5.02046 9.41599 5.13587 9.39615C5.25129 9.3763 5.37632 9.34653 5.50135 9.31677C5.65523 9.287 5.78027 9.25723 5.89568 9.22746C6.00147 9.19769 6.13612 9.16792 6.29963 9.13816C6.24192 8.88016 6.18421 8.5924 6.11689 8.2848C6.04956 7.97719 5.98224 7.64974 5.91491 7.30245L8.20395 6.79639C8.31936 7.35206 8.42516 7.88789 8.53095 8.4138C8.63675 8.9397 8.72331 9.36638 8.79063 9.69383C8.90604 10.2693 9.03108 10.8349 9.14649 11.3906C9.25229 11.9364 9.32923 12.3333 9.38693 12.5714Z" fill="white"/>
<path d="M15.9654 8.11655C16.0616 8.56307 16.0616 9.0096 15.9751 9.42635C15.8885 9.85303 15.7058 10.2599 15.4172 10.6468C15.196 10.9544 14.8979 11.2124 14.542 11.4208C14.1765 11.6292 13.7822 11.788 13.3398 11.8872C12.907 11.9864 12.4838 12.0162 12.0702 11.9765C11.6663 11.9368 11.2912 11.8276 10.945 11.6391C10.541 11.4109 10.214 11.1231 9.96395 10.7758C9.70427 10.4186 9.53115 10.0118 9.43497 9.55535C9.33879 9.10882 9.33879 8.68215 9.41573 8.28524C9.49267 7.87841 9.66579 7.49142 9.91586 7.1342C10.1467 6.79683 10.4448 6.51899 10.8007 6.30069C11.1565 6.08239 11.5797 5.91371 12.0606 5.80456C12.5127 5.70533 12.9455 5.67556 13.359 5.71525C13.7726 5.75494 14.1573 5.88394 14.5228 6.08239C14.9171 6.31062 15.2345 6.59837 15.4749 6.93575C15.7154 7.27312 15.8789 7.67003 15.9654 8.11655ZM13.6187 8.65238C13.5802 8.47377 13.5129 8.29516 13.4167 8.11655C13.3205 7.93794 13.1955 7.80895 13.0416 7.72956C12.9647 7.68987 12.8781 7.65018 12.782 7.64026C12.6858 7.62041 12.5704 7.62041 12.4549 7.65018C12.3395 7.67995 12.2434 7.71964 12.1664 7.77918C12.0895 7.83871 12.0125 7.9181 11.9452 8.01732C11.8586 8.14632 11.8009 8.315 11.7817 8.50354C11.7625 8.69207 11.7625 8.87068 11.8009 9.04929C11.8394 9.23782 11.9067 9.4065 11.9933 9.56527C12.0799 9.72403 12.2049 9.85303 12.3492 9.94233C12.4357 10.0019 12.5319 10.0316 12.6377 10.0515C12.7435 10.0713 12.8493 10.0614 12.9743 10.0416C13.0801 10.0217 13.1763 9.98202 13.2628 9.92249C13.3494 9.86295 13.4167 9.79349 13.484 9.70419C13.5802 9.56527 13.6379 9.39658 13.6572 9.20805C13.6572 8.98975 13.6572 8.81114 13.6187 8.65238Z" fill="white"/>
<path d="M21.3417 5.95374C21.1301 6.00335 20.8608 6.06289 20.5338 6.13234C20.2068 6.2018 19.9375 6.26134 19.7355 6.30103C19.7932 6.56895 19.8413 6.81701 19.8894 7.04524C19.9375 7.27346 19.9856 7.5513 20.0529 7.8589C20.1491 8.3352 20.2356 8.76187 20.3222 9.12902C20.3991 9.50608 20.4761 9.83353 20.5338 10.1312L18.2448 10.6373C18.1871 10.3694 18.1294 10.0717 18.0621 9.74423C17.9947 9.41678 17.9082 8.97025 17.7928 8.39473C17.735 8.13674 17.687 7.87875 17.6293 7.62076C17.5715 7.36277 17.5138 7.09485 17.4561 6.80709C17.1772 6.86663 16.8695 6.93609 16.5232 7.01547C16.177 7.09485 15.9558 7.14447 15.85 7.16431L15.4557 5.22937C15.5807 5.19961 15.9365 5.12022 16.5425 4.99123C17.1484 4.86223 17.7062 4.73324 18.2352 4.62409C18.6583 4.53478 19.1681 4.41571 19.7644 4.28671C20.3607 4.15772 20.7646 4.06841 20.9762 4.0188L21.3417 5.95374Z" fill="white"/>
<defs>
<linearGradient id="paint0_linear" x1="13.4715" y1="9.0005" x2="23.2912" y2="9.0005" gradientUnits="userSpaceOnUse">
<stop stop-color="#FF0001"/>
<stop offset="1" stop-color="#A00C0C"/>
</linearGradient>
<linearGradient id="paint1_linear" x1="0" y1="8.82039" x2="23.2912" y2="8.82039" gradientUnits="userSpaceOnUse">
<stop stop-color="#FF0000"/>
<stop offset="1" stop-color="#FF5518"/>
</linearGradient>
</defs>
</svg>
